# xmcd CD database file
#
# Track frame offsets:
#	150
#	33670
#	72777
#	98222
#	123347
#	173570
#	186270
#	202635
#	212290
#	240222
#	278987
#	283587
#
# Disc length: 3896 seconds
#
# Revision: 0
# Processed by: cddbd v1.5PL3 Copyright (c) Steve Scherf et al.
# Submitted via: CDex 1.50
#
DISCID=9e0f360c
DTITLE=Premiata Forneria Marconi - Absolutely Live 1971-1978(Disc2)
DYEAR=1996
DGENRE=Progressive Rock
TTITLE0=Four Holes In The Ground
TTITLE1=Is My Face On Straight
TTITLE2=Cleveland Keyboard Jam
TTITLE3=MR. 9 Till 5
TTITLE4=Alta Loma 5 Till 9
TTITLE5=J. C. Violin Jam
TTITLE6=Classic Violin Solo
TTITLE7=William Tell Overture
TTITLE8=La Carrozza Di Hans
TTITLE9=Central Park Drum Solo
TTITLE10=Impressioni Di Settembre
TTITLE11=Poseidon
EXTD=YEAR: 1996
EXTT0=
EXTT1=
EXTT2=
EXTT3=
EXTT4=
EXTT5=
EXTT6=
EXTT7=
EXTT8=
EXTT9=
EXTT10=
EXTT11=
PLAYORDER=
